/* XPM */
static char *a0f36ad3719f4312f77f453aafd7bfbctnof1kHYRK7pbNkU[] = {
/* columns rows colors chars-per-pixel */
"64 64 232 2 ",
"   c None",
".  c #010001",
"X  c #0B0202",
"o  c #0B0A0C",
"O  c #0B0805",
"+  c #130202",
"@  c #1C0202",
"#  c #140D05",
"$  c #130C0C",
"%  c #1F1608",
"&  c #171617",
"*  c #110E11",
"=  c #230102",
"-  c #2C0202",
";  c #280B0C",
":  c #340102",
">  c #340B06",
",  c #380605",
"<  c #24190A",
"1  c #37160A",
"2  c #251B16",
"3  c #3A1617",
"4  c #350F13",
"5  c #2F220C",
"6  c #33250C",
"7  c #3A2C0D",
"8  c #2B271F",
"9  c #201F22",
"0  c #232324",
"q  c #2B2B2B",
"w  c #2A2926",
"e  c #3B3A3A",
"r  c #312F32",
"t  c #4B0608",
"y  c #5C0304",
"u  c #5B090C",
"i  c #540709",
"p  c #4C191A",
"a  c #58191C",
"s  c #50150E",
"d  c #630203",
"f  c #660505",
"g  c #631B1C",
"h  c #4A250B",
"j  c #47350E",
"k  c #58360F",
"l  c #4C3911",
"z  c #513C11",
"x  c #572817",
"c  c #62300E",
"v  c #5C1922",
"b  c #761C24",
"n  c #4A2323",
"m  c #483432",
"M  c #563739",
"N  c #553520",
"B  c #7C212C",
"V  c #663031",
"C  c #5E4414",
"Z  c #654613",
"A  c #754A15",
"S  c #6B5118",
"D  c #785A18",
"F  c #42423F",
"G  c #50483C",
"H  c #785C22",
"J  c #715C36",
"K  c #703F40",
"L  c #4B4B4D",
"P  c #444445",
"I  c #554444",
"U  c #575758",
"Y  c #684A47",
"T  c #785756",
"R  c #734B4A",
"E  c #6E6454",
"W  c #666767",
"Q  c #776965",
"!  c #7B7C7D",
"~  c #767475",
"^  c #78706F",
"/  c #89222D",
"(  c #97252D",
")  c #962734",
"_  c #AD2B39",
"`  c #B92E3C",
"'  c #A0252E",
"]  c #D6303F",
"[  c #C12F3D",
"{  c #855819",
"}  c #89661C",
"|  c #956E1D",
" . c #9D751D",
".. c #98721A",
"X. c #AA7C1D",
"o. c #A3791B",
"O. c #8A6924",
"+. c #957322",
"@. c #997523",
"#. c #997A27",
"$. c #987A33",
"%. c #916F23",
"&. c #AA7F20",
"*. c #A47E2B",
"=. c #A47A21",
"-. c #B63240",
";. c #CE3243",
":. c #C63341",
">. c #D43142",
",. c #D83141",
"<. c #D72F40",
"1. c #815E5F",
"2. c #937A47",
"3. c #8A7650",
"4. c #847978",
"5. c #957D7B",
"6. c #AA811D",
"7. c #B4851B",
"8. c #BC8B1D",
"9. c #B88719",
"0. c #9E8137",
"q. c #AB8423",
"w. c #AB852A",
"e. c #AB882A",
"r. c #B28523",
"t. c #B48924",
"y. c #BB8D23",
"u. c #B28B2C",
"i. c #BA8725",
"p. c #BC9125",
"a. c #BB922A",
"s. c #AB8A36",
"d. c #BD963F",
"f. c #C4931E",
"g. c #CA951C",
"h. c #D99E1E",
"j. c #C38E1C",
"k. c #DCA41E",
"l. c #D9A31D",
"z. c #E4AA1E",
"x. c #E5AA1C",
"c. c #EDB11E",
"v. c #FCBB17",
"b. c #F4B51E",
"n. c #F6BA1E",
"m. c #FDBA1A",
"M. c #F8B71C",
"N. c #C38E22",
"B. c #C49424",
"V. c #CC9B24",
"C. c #C59A2A",
"Z. c #CB9D2A",
"A. c #C79627",
"S. c #D39D23",
"D. c #D19F2A",
"F. c #C49B32",
"G. c #CEA025",
"H. c #CDA02A",
"J. c #D5A225",
"K. c #DCA423",
"L. c #DEAA25",
"P. c #D4A42C",
"I. c #D9A52B",
"U. c #D3A532",
"Y. c #D8A730",
"T. c #CFA131",
"R. c #E3AA24",
"E. c #EAAE23",
"W. c #E3AC29",
"Q. c #E0A620",
"!. c #ECB223",
"~. c #EBB22B",
"^. c #F2B522",
"/. c #F5B921",
"(. c #FBBB21",
"). c #F5BA29",
"_. c #F0BB39",
"`. c #FFC020",
"'. c #A78F57",
"]. c #A88D4A",
"[. c #9B8663",
"{. c #86817B",
"}. c #9F9478",
"|. c #A69265",
" X c #A7997C",
".X c #B29B6C",
"XX c #B8A36D",
"oX c #C4A766",
"OX c #8C8C8C",
"+X c #858686",
"@X c #968D8C",
"#X c #9A9289",
"$X c #999696",
"%X c #928F93",
"&X c #A19592",
"*X c #AEA286",
"=X c #A8A297",
"-X c #B3A891",
";X c #A39EA0",
":X c #A5A4A3",
">X c #ABAAA9",
",X c #B5B5B4",
"<X c #BDBCBB",
"1X c #B9B9B5",
"2X c #B8B2AD",
"3X c #C2BDBA",
"4X c #C5BCAD",
"5X c #CBBA8E",
"6X c #C8C4B8",
"7X c #D2CCBB",
"8X c #BCC0C0",
"9X c #CCCCCB",
"0X c #C7C6C3",
"qX c #D2D2D2",
"wX c #DCDCDB",
"eX c #D8D8D7",
"rX c #D5D2CD",
"tX c #E1DDDA",
"yX c #E7E6DE",
"uX c #E4E5E4",
"iX c #ECECEC",
"pX c #E8E7E3",
"aX c #F0EFEF",
"sX c #EEF0EE",
"dX c #F1F0EF",
"fX c #EFF0F0",
"gX c #F5F5F4",
"hX c #FEFEFE",
"jX c #FDFEFD",
"kX c #FEFEFD",
"lX c #F9F9F7",
"zX c #EDEFF0",
/* pixels */
"                                                                                                                                ",
"                                                                                                                                ",
"                                                                                                                                ",
"                                                                                                                                ",
"                                                                                                                                ",
"                                                        S H O.+.+.+.%.O.H                                                       ",
"                                                  +.t.V.R.!././././.^.!.R.Z.u.%.                                                ",
"                                              e.J.^.m.m.m.m.m.m.m.m.m.m.m.m.m.!.V.*.                                            ",
"                                          *.I./.m.m.m.m.m.m.m.m.m.m.m.m.v.m.m.m.m.^.J.#.                                        ",
"                                        a.!.m.m.m.m.m.v.v.m.m.m.m.m.m.m.m.m.m.m.m.v.m.!.t.                                      ",
"                                      C./.m.m.m.m.m.m.m.m.m.m.m.m.m.m.m.m.v.m.v.v.v.m.m./.C.                                    ",
"                                    Z.n.m.m.m.m.m.m.m.m.m.m.m.m.m.m.m.m.m.m.(.(.(.m.m.v.m.(.Z.                                  ",
"                                  C.n.m.(.(.m.m.m.m.m.m.m.m.m.m.m.m.v.m.v.!.r.} | B./.v.m.m.(.B.                                ",
"                                u.!.m.K.q.t.L.n.m.v.m.m.m.m.m.m.m.m.v.m.J.C # O O < } !.m.m.m.^.*.                              ",
"                                K.!.| 6 O O 7 q./.m.m.m.m.m.m.m.m.m.m.W.z * U %X~ 0 # @.(.m.m.m.K.                              ",
"                              u.!.} # q U L & < y.m.m.v.m.m.m.m.m.m.n.| $ +XdXhXlX,X0 6 K.m.m.m.(.q.                            ",
"                              I.f.% U qXgXiX,Xr z !.m.m.m.m.m.m.m.m.E.j L iXhXhXhXhXOXO  .m.m.m.m.I.                            ",
"                            q.!.S q qXhXhXhXhX>X2 y.m.m.m.m.m.v.m.m.f.< :XhXhXhXhXhXeX0 Z m.m.v.m./.#.                          ",
"                            V.R.6 ! jXhXhXjXjXsXL D (.m.!.R.E.b.m.m.o.w wXhXhXhXhXhXgXU j !.m.m.m.m.V.                          ",
"                            c.f.2 <XhXhXhXhXjXjX! z P.7.o.X.7.8.f.R.} F dXhXhXhXhXhXhX! 6 !.m.m.m.m.R.                          ",
"                          u.m.X.8 qXhXhXhXhXhXhX$X2 @.B.E.b.^.!.k.8.Z P gXjXhXhXhXhXhX+X6 x.m.m.m.m./.q.                        ",
"                          G.m. .w wXhXhXhXhXhXhX:XS R.(.m.m.m.m.m.^. .G iXjXjXhXhXhXhX! 6 E.m.m.m.m.m.a.                        ",
"                          R.m.o.0 eXjXhXhXhXjXgX.XR.m./.J.B.K.m.m.m./.0.6XjXjXhXhXhXgXU l W.z.m.v.v.m.G.                        ",
"                        *.^.m.8.2 0XhXhXhXhXhX7XT.m.m.6.5 # 6 7.m.m.v.!.|.iXjXhXhXhXqX9 D R.l.m.v.m.m.k.                        ",
"                        t.M.v.k.5 $XhXhXhXhXgXoXb.m.b.z . . . z ^.m.m.m.F.6XhXhXhXgXW # y.V.k.m.^.M.m.c.                        ",
"                        y.m.m.b.z P iXhXhXhXrXU.m.m.b.l . . . 6 L.v.m.m.!.|.wXlXiX+Xo z W.8.^.m.k.x.m.!.                        ",
"                        B./.m.n.@.$ ! iXhXhX5XE.m.v.n.} # O < D N.m.m.m.(.+.e W P o < y.S.B.(.m.S.z.m.!.                        ",
"                        V.J.c.x.A.l o U ;XOX0.m.m.m.c.t.t.=.B.^.g.x.m.v.m.p.% O O 6 &.!.N.!.m.m.S.L.m.^.                        ",
"                        G.Z.E.b.B.a.j O o O | m.m.m.S.S.m.n.v.m.R.S.n.v.v.L.&.o.6.J.m.b.^.m.m.m.k.S.m.!.                        ",
"                        J.C.!.m.K.N.Z. .D D t.m.m.n.B.R.^.E.L.K.J.i.b.v.v.L.K.`.m.m.m.m.m.m.m.m.x.V.m.!.                        ",
"                        C.F.~.b.(.K.k.m.(.L.p.m.v.b.$.2.S J [.3.E [.I.m.m.A.e.V.K.!.m.m.m.m.m.m.b.B.n.R.                        ",
"                        e.e.w.g.m.(.!.D.d.].$.!.m.P.-XqXw L aX9X! pXXXW.J.'.7X=X*X.Xs.P.^.(.b.g.R.S.S.B.                        ",
"                          H t.^.~.t.'.}.0X9X2X].r.3.yXqX& & :X~ q 0X{.l 7 4.gX>XsXqX=X*X$.S.(.K.o.V.y.O.                        ",
"                          B.(.V.A 1 >XwXuXqX1X6X8 9 $XW . . * o . 0 & . . w W P eX%X>XuXm h o.^.R.&.I.a.                        ",
"                        C.).&.h - - ^ qX@X^ e U o . o O . . . . . . . . . . . O e & F ^ ; = > { !.K.&.u.                        ",
"                      *.~.r.1 - : : 4 M ; @ X . . . . . . . . . . . . . . . . . . . . X @ @ = - { ^.y.H                         ",
"                      H.J.h - : , : : - = + X . . . . . . . . . . . . . . . . . . . X X + @ = : > =.E.O.                        ",
"                      ~.} - : : : : : - = + . . . . . . . . . . . . . . . . . . . . . X X @ = - - k !.y.                        ",
"                    u.L.h : : : : : : - @ X . . . . . . . . . . . . . . . . . . . . . . X @ = - : 1 S.J.                        ",
"                    C.f.> : : : : : : - @ X . . . . . . . . . . . . . . . . . . . . . X X @ @ = : > 8.E.                        ",
"                    P.7.> : : : : : : - @ X . . . . . . X ; ; + X 4 v b a @ . . . . . X X @ @ = : > 7.^.                        ",
"                    P.7.> : : : : : : = 2 $ . . . . . ; B _ ` / B -.;.;.:.B + . o q $ . X @ = = : , 9.^.                        ",
"                    H.t.> : : : : - m W :X^ . . X + = ) >.<.,.;.;.,.>.] [ ) 3 . P qX~ e X @ = - : , g.^.                        ",
"                    p.V.1 : : : > I ;XuXqXOX= , t i u ` ] ] >.>.>.>.>.;./ u t = I qX9X>XU ; = - : h K.!.                        ",
"                    @.L.k - : : 3 9X9XwX4.p y d f f d ( [ ` _ ( ( ( ' b u y d y t M %X,XaXQ = : : c ^.R.                        ",
"                      P.| - : : n uX8X{.p a u y i d d i u f s p i y a a u V a a V M 1X3XzX=X- : > o.n.Z.                        ",
"                      w.L.k - : 3 <X,X3XT 2XR T #Xa g 5.K u 5.3XR v 3X3XQ tX@X$XtX;XfXuXqX5.- - k R.!.@.                        ",
"                        P.I.Z > - M <XgX<XhX>X0XlX1.R tX@Xn =X6XQ Y 1X,XOXeX<X6XjX0XwXfX4.a : h B.(.A.O.                        ",
"                          W.!.&.A c  X6X-X4X#X XXX2.%.s.$.=.w.u.r.q.w.*.#.$.$.2.|.[. X-XN c { S.(.K.r.F.                        ",
"                          %.L.(.^.R.J.G.A.B.V.K.R.!././.m.(.(.(.(.(.(.(.(.m./.!.R.R.K.S.S.R./.n.J.X.L.Y.                        ",
"                          #.7.8.K.!.^.!.n.m.m.m.m.m.m.m.v.b.g.9.9.9.9.8.K.m.m.m.m.m.m.v.m.m.m.j.o.L.(.Y.                        ",
"                          a.!.S.X. .X.X.z.m.m.m.m.m.m.m.m.m.z.K.z.L.k.l.z.m.m.m.m.m.m.m.m.m.n.h.c.m.m.I.                        ",
"                          p.m.m./.c.E.c.n.m.m.m.m.m.m.m.m.m.m.m.m.m.m.m.m.m.m.v.v.v.m.m.m.m.m./.k.m.m.I.                        ",
"                          a.m.m.m.v.m.m.m.m.m.m.m.m.m.m.m.m.m.m.m.m.m.m.m.m.m.m.m.m.m.m.m.m.m.!.B.m.m.Y.                        ",
"                          p.m.m.m.m.m.m.m.m.m.m.m.m.m.m.m.m.m.m.m.m.m.m.m.m.m.m.m.m.m.m.m.m.m.^.f.m.m.Y.                        ",
"                          B.m.m.m.m.m.m.m.m.m.m.m.m.m.m.m.m.m.m.m.m.m.m.m.m.m.m.m.m.m.m.m.m.m.^.B.m.m.P.                        ",
"                          V.m.m.m.m.m.m.m.m.m.m.m.m.m.m.m.m.m.m.m.m.m.m.m.m.m.m.m.m.m.m.m.m.m.^.V.m.m.P.                        ",
"                          H.m.m.m.m.m.m.m.m.m.m.m.m.m.m.m.m.m.m.m.m.m.m.m.m.m.m.m.m.m.m.m.m.m.(._.m.m.P.                        ",
"                          U.(.(.(.(.(.(.m.m.m.(.(.(.(.m.m.m.(.m.m.(.m.m.m.(.m.m.m.(.(.m.m.(.(.).  (.(.U.                        ",
"                                                                                                                                ",
"                                                                                                                                ",
"                                                                                                                                ",
"                                                                                                                                ",
"                                                                                                                                "
};
