/* XPM */
static char *_4c9ed5157364292c64ee00b32ad52a9dfgSHBakzGyndRFe[] = {
/* columns rows colors chars-per-pixel */
"64 64 230 2 ",
"   c None",
".  c #081D26",
"X  c #0A232C",
"o  c #07252C",
"O  c #0A2631",
"+  c #0C2B35",
"@  c #0D2E3A",
"#  c #0E313D",
"$  c #0A3C3E",
"%  c #08493B",
"&  c #03603D",
"*  c #0D3444",
"=  c #0B364B",
"-  c #0D394C",
";  c #0D3C43",
":  c #0A3750",
">  c #0B3A54",
",  c #0B3E5A",
"<  c #0C4848",
"1  c #0A594A",
"2  c #0B415D",
"3  c #0C4A57",
"4  c #0D5955",
"5  c #135449",
"6  c #0C6F46",
"7  c #0B6D4C",
"8  c #096549",
"9  c #16664A",
"0  c #0C7147",
"q  c #0B7349",
"w  c #067C4C",
"e  c #0B7B4C",
"r  c #06784A",
"t  c #11754B",
"y  c #137B4C",
"u  c #1D7B47",
"i  c #0B6853",
"p  c #136757",
"a  c #0A7652",
"s  c #197756",
"d  c #237C50",
"f  c #0C4563",
"g  c #0E4966",
"h  c #0E4B6C",
"j  c #0B4669",
"k  c #0E5467",
"l  c #115A6B",
"z  c #0E4E72",
"x  c #0D4F78",
"c  c #0E5275",
"v  c #0F547B",
"b  c #105375",
"n  c #11567A",
"m  c #125A7D",
"M  c #115971",
"N  c #104F6D",
"B  c #186A66",
"V  c #1B7567",
"C  c #166776",
"Z  c #1B7576",
"A  c #257B6F",
"S  c #05834E",
"D  c #09844E",
"F  c #1D814B",
"G  c #15814F",
"H  c #058551",
"J  c #0A8450",
"K  c #058B52",
"L  c #0C8B53",
"P  c #168351",
"I  c #1C8B54",
"U  c #198653",
"Y  c #049355",
"T  c #049C59",
"R  c #079757",
"E  c #04914F",
"W  c #25874A",
"Q  c #37974D",
"!  c #278959",
"~  c #239359",
"^  c #29995C",
"/  c #389856",
"(  c #04A159",
")  c #3EA15B",
"_  c #1E8464",
"`  c #278568",
"'  c #2B9A64",
"]  c #278877",
"[  c #399876",
"{  c #349270",
"}  c #2DA061",
"|  c #33A465",
" . c #3AAB6A",
".. c #37A867",
"X. c #3BAA71",
"o. c #429F52",
"O. c #4CA44D",
"+. c #46A14E",
"@. c #52A74E",
"#. c #44A254",
"$. c #4AA757",
"%. c #54A953",
"&. c #5BAD55",
"*. c #54AC5C",
"=. c #5CB15C",
"-. c #67B55A",
";. c #73BA5C",
":. c #499C6B",
">. c #429C76",
",. c #42A867",
"<. c #56AD69",
"1. c #43B16D",
"2. c #4BB56F",
"3. c #5CB463",
"4. c #5CB666",
"5. c #4BAA7A",
"6. c #4EB974",
"7. c #48B571",
"8. c #56BB77",
"9. c #52AB76",
"0. c #69BA67",
"q. c #74BD64",
"w. c #79BE65",
"e. c #61AE75",
"r. c #64B378",
"t. c #5BC27B",
"y. c #6EC16E",
"u. c #7CC36B",
"i. c #78C067",
"p. c #62C57E",
"a. c #6AC57A",
"s. c #79C574",
"d. c #84C56C",
"f. c #88C568",
"g. c #95CA6C",
"h. c #88CB77",
"j. c #96CD74",
"k. c #98D17C",
"l. c #A7D47A",
"z. c #A9D376",
"x. c #135C83",
"c. c #125F8B",
"v. c #0F5782",
"b. c #156285",
"n. c #15648C",
"m. c #186C89",
"M. c #1C7684",
"N. c #146692",
"B. c #156994",
"V. c #186B94",
"C. c #166D9B",
"Z. c #186F99",
"A. c #19739C",
"S. c #1A7599",
"D. c #227C86",
"F. c #217891",
"G. c #1976A2",
"H. c #1B7AA5",
"J. c #1B7DAA",
"K. c #1774A4",
"L. c #298689",
"P. c #399588",
"I. c #25869A",
"U. c #35979A",
"Y. c #2F9392",
"T. c #3AA68E",
"R. c #1D83AD",
"E. c #1D86B1",
"W. c #1E8AB4",
"Q. c #1F8FB8",
"!. c #1E92BC",
"~. c #2589A6",
"^. c #349CA9",
"/. c #218DB5",
"(. c #2194BB",
"). c #2498BC",
"_. c #2A95AB",
"`. c #35A4A6",
"'. c #38ADB7",
"]. c #1F809B",
"[. c #479D88",
"{. c #53B292",
"}. c #6ABB88",
"|. c #69BD95",
" X c #4EB6AB",
".X c #61BDA3",
"XX c #59C397",
"oX c #6BC982",
"OX c #6AC08B",
"+X c #74CA85",
"@X c #66C69A",
"#X c #7DCB99",
"$X c #56C4B2",
"%X c #66C9B4",
"&X c #239DC2",
"*X c #25A3C5",
"=X c #25A5C9",
"-X c #26AACB",
";X c #29ADCD",
":X c #2CAAC3",
">X c #2AB1CE",
",X c #36B6C8",
"<X c #29AED1",
"1X c #27AED2",
"2X c #2AB3D4",
"3X c #2BB9D5",
"4X c #2AB5D9",
"5X c #2DBBDC",
"6X c #27B2D6",
"7X c #31BCD7",
"8X c #32ADC4",
"9X c #2EBEE0",
"0X c #2EC1DE",
"qX c #36C3DB",
"wX c #3EC2CB",
"eX c #2EC2E2",
"rX c #31C4E4",
"tX c #33C8E6",
"yX c #35CBEB",
"uX c #36C8E7",
"iX c #36D1F2",
"pX c #38D3F4",
"aX c #37D0EF",
"sX c #4FC7C7",
"dX c #8BD183",
"fX c #98D483",
"gX c #85CE9A",
"hX c #ABD884",
"jX c #B2D983",
"kX c #85D3A8",
/* pixels */
"                                                            u F F F                                                             ",
"                                                W d s s s W F F F F F F F G s g                                                 ",
"                                          s s d B M l B s W W F F F u u u u p j j f f                                           ",
"                                      V V ! ! V m v.v.v.m ! W W W F F u u p g j j j f f f                                       ",
"                                  V ! Z ! / / / ` b.c.c.Z ! ~ ! ! W W F p N j j j j f f f 2 3                                   ",
"                              ` A ` / A ` Z { / / D.B.B.` / / / ^ ` C C M c N j j j j f f f 4 P L                               ",
"                          Q Q / / / / { D.D.{ ,.{ L.C.S.) ) / ] M.N.c.b.V s B z h j j j f 4 y G y a                             ",
"                        Q Q #.#.{ ] { L.L.L.>.[ I.H.H.].,.$.] A.C.C.B.N.b.b.x.v c h j j p t y t 4 P L R                         ",
"                      Q o.#.{ D.A.K.S.[ <.P.I.~.R.R.R.R.Y.P.H.H.G.K.C.C.B.N.c.x.v c h j t t y t 3 p a L R                       ",
"                    o.#.O.,.F.K.H.J.Y.<.3.9.5.U.W.W.W.W.W.E.E.R.J.H.G.K.C.C.N.n.Z V c z k 4 t i 3 i y L R R                     ",
"                  +.+.$.%.*.[ I.R.~.5.0.0.0.0.`.(.!.!.!.!.Q.Q.W.E.R.J.H.G.K.C.M.` ` m x N p p 4 4 t e J L Y R                   ",
"                +.O.%.*.=.=.-.9.U.e.0.0.y.y.y.r.).&X&X&X&X(.(.(.Q.W.E.R.J.G.S.] ] ~ V m s y t t t y y J J L Y T                 ",
"              +.O.%.&.=.-.0.0.8.8.i.i.s.y.a.}.{.:X=X=X*X*X&X&X&X(.(.Q.W.E.J.H.S.M.] ` ! I P y t t t e e J L L R T               ",
"            +.O.%.&.=.-.0.0.q.i.u.u.s.}. X'..XOX8X-X-X-X=X=X=X*X&X&X(.!.W.E.J.H.S.] ' ~ ~ U G y t t q e e J L Y T               ",
"            O.%.&.-.-.0.q.w.i.u.d.d.h.s. X,X'. X>X1X<X<X<X;X-X=X=X*X&X(.(.Q.E.J.H.L.^ ^ ~ I P y t t t q e J J L R T             ",
"          O.%.&.-.-.;.q.i.u.d.d.h.+X@X@X X2X4X4X4X4X4X2X2X2X<X;X-X=X*X&X(.(./.Y.I.] | ' ` _ V p t t t q e e J L Y T (           ",
"          O.%.&.-.;.q.i.d.f.f.g.+X,X<X2X4X4X4X5X5X5X5X4X4X4X2X2X<X-X-X*X&X(._.1.1...{ S.V.Z V B B t t q q e w J K R (           ",
"        O.%.&.-.;.q.i.f.f.g.h. X,X2X4X4X5X5X5X9X9X9X5X5X5X5X4X2X2X<X;X-X*X&X`.2.1.X.I.S.V.M.b.B l p 4 4 q e w J K Y T (         ",
"        @.&.-.-.;.w.f.f.g.h. X1X2X4X5X5X9X9X9XrXrXrXrXrX9X5X5X7X2X2X2X;X-X*X`.[.5.Y.I.L.D.M.m.C c k 4 3 7 7 q w H K T (         ",
"      O.%.&.-.;.w.f.f.g.g.|.<X2X4X5X5X9XrXrXrXrXrXrXrXrXrXrX9X5X5X4X2X;X-X*X&X`.T.T. .| | ' n.x.n z j f 2 3 3 7 J K Y ( (       ",
"      @.&.-.;.;.i.f.g.h. X;X2X4X5X7X9XrXrXuXuXuXyXyXuXuXrXrXrXeX5X5X3X>X;X-X`.8.6.2. ...| ' A C n l k f , , 2 q J K Y T (       ",
"    O.@.&.-.;.q.w.f.h.'.-X1X2X4X7X7XeXrXuXyXyXyXyXyXyXyXyXrXrXrX5X5X3X4X2X8X{.8.6.7.1...| } ^ ~ V s y 7 4 i i w D H Y T R T     ",
"    O.%.*.>.[.[.^.{.}.=X-X2X4X5X9XeXrXtXyXyXyXaXyXyXyXyXyXyXrXrX0X5X7X7X,X Xt.8.8.7.1. .| | ^ ~ I P y t q q 7 q w H K T 7 7     ",
"    @.%.D.K.J.W.!.`.|.=X1X2X4X5X9XrXtXyXyXyXaXiXiXiXaXaXyXyXuXrXrX0X5X7XXXa.p.t.8.6.1. ...| ' ^ ~ I G y q q 7 4 w H K R Y 1     ",
"  O.@.:.A.H.R.W.(.).'.8X1X4X4X5XeXrXtXyXyXpXiXpXpXiXiXaXyXyXyXrXrX0X5X$XoXa.p.t.8.6.7.1...| ' ^ ~ I P y q q q 4 i H K Y T K     ",
"  O.@.] C.H.~._.^. X.X'.2X4X4X5XeXrXtXyXyXpXiXpXpXpXiXiXyXyXyXrXrXeXqX@X+XoXp.t.8.6.7.1...| ' ^ ~ I P y q q q 7 3 w K Y T T T   ",
"  O.@.{ K.I.e.^.(.&X'..X X%X,X5XrXrXtXyXyXpXpXpXpXpXiXiXyXyXyXtXrXeXqX@X+XoXp.t.8.6.7.1...| } ^ ~ I P y q 6 q r 4 4 H Y T ( T   ",
"  / @.*.:.0.e./.!.&X'.8X X%XsXwXrXuXtXyXyXpXpXpXpXpXpXpXyXyXyXuXrXeX0X@X+XoXp.t.8.6.7.1. .| } ^ ~ I P y q q q r 7 3 a Y T ( Y   ",
"  m A { :.;.e.{.^.&X=X-X6X4X5X5XqXqXtXyXyXpXpXpXpXpXpXyXyXyXyXuXqXeXwX+X+XoXp.t.8.6.7.1. .| } ^ ~ I P y q q q r w 1 4 Y T K 1   ",
"  v.n.B.S.P.e.f. X&X=X-X>X3X4X5XrXrXtXyXyXyXpXpXpXpXaXyXyXyXuXrXrXeXwX+X+XoXp.t.8.6.7.1...| } ^ ~ I P y q 6 6 r w w a a 1 < @   ",
"v x.c.N.C.H.~.r.^.&X*X X#XgX%XsXsXqXrXtXtXyXyXaXyXyXyXyXyXyXtXrXrX0X7X$XoXoXp.t.8.6.7.1...| ' ^ ~ I P y q 6 6 q r S H 1 i a $   ",
"c v c.N.C.G.J.U.{.{.{.j.l.l.z.jXhX%XrXeXtXyXyXyXyXyXyXyXyXtXrXrX0X5X5X3XXXa.p.t.8.6.2. ...| ' ^ ~ I P y q 6 q q r S K Y T K #   ",
"x v c.N.C.G.J.E._.^.}.j.z.z.z.z.l.hX%XsXuXtXtXyXyXyXyXtXtXrXrX0X0X5X3X4X,XXXp.t.6.7.T.X...| ^ ~ I I G y q 6 q r w S K Y T 8 O   ",
"x v x.n.V.A.H.R.W.!.}.g.j.z.z.z.l.jXjXhXkXuXtXtXtXtXtXtXrXrX0X0X5X5X3X2X>X'. X`.`._.R.I.] ' ^ ~ I P y t 0 6 q r w S K Y K ; O   ",
"  c x.n.B.C.H.R.E.^.s.g.g.j.z.l.l.l.jXhXhXsXeXrXrXrXrXrXeX0X0X5X5X3X2X>X;X=X&X&X(.W.R.H.G.] ^ ~ I P y q 6 0 q r w S K H < @ O   ",
"  x n c.N.C.G.J.R.}.f.f.g.j.j.l.l.l.l.hXhXgXsXqXeXeXeX0X0X5X5X5X3X2X2X;X-X*X&X(.Q.E.R.G.S.] ^ ~ I P y q 6 0 q r w S w < * @ O   ",
"  z v x.n.B.A.H.R.e.f.f.f.g.j.j.k.l.l.l.hXfXfX#XsXsX0X5X5X4X3X3X2X>X>X-X*X&X(.(./.R.H.G.A.] ~ I P G y 0 6 0 q r w w < * * + X   ",
"  h c m n.N.C.G.H.e.i.f.f.f.g.j.j.k.k.k.k.fXfXfXfXdX$X,X5X3X3X2X>X;X-X*X*X).(./.R.R.H.A.V.m._ I P y t 6 6 0 r r S 1 * * # + o   ",
"  j z n x.n.B.C.G.P.q.i.d.d.f.g.h.j.j.k.k.k.k.dXdXdXdX@X3X2X2X>X-X-X*X&X).(./.W.R.H.G.Z.n.x.V I G y q 6 6 q r w S < * * @ O .   ",
"  j h c n x.N.C.A.H.[.q.i.u.d.d.h.h.h.h.h.h.h.h.h.h.h.@X>X>X-X-X=X*X&X).(./.W.R.J.G.A.V.b.x.C P y t 0 6 0 q r w S 1 * * + X .   ",
"    j z n x.n.B.C.G.I.<.q.w.i.u.d.d.h.h.h.h.h.h.h.s.+X'.-X-X*X*X*X&X).(./.W.R.J.G.A.V.n.x.n M s y q 6 6 0 r r S K 7 * @ + o     ",
"    j j z n x.n.B.A.G.Y.0.q.q.i.i.u.s.s.s.s.s.s.s.s.{.*X*X*X*X&X).(.(./.W.R.J.G.A.Z.n.x.m b l y t 0 6 6 q r w S K q * + % %     ",
"    f j h c n x.n.B.A.S.P.<.0.q.q.y.i.i.s.s.s.s.s.s.{.&X).).).(.(./.W.R.R.J.G.A.Z.n.b.x.n z p y 0 6 6 0 r r w S Y 8 # % w &     ",
"      f j z b m x.n.B.Z.G.I.9.0.0.q.0.0.y.y.y.y.y.y.{.(.(.(././.W.E.R.R.H.G.A.Z.n.b.x.n b j p t 6 6 0 0 r w S H 8 ; < E S       ",
"      f f j h b n x.b.B.C.C.L.3.0.0.0.0.0.0.0.0.0.0.U.Q./.W.W./.R.R.H.G.S.Z.V.n.b.x.n b h j 4 0 6 6 0 q r S S 1 * @ % E 6       ",
"      2 2 f j h b m x.b.N.B.F.<.=.3.3.3.4.4.4.4.4.9._.E.R.R.R.J.H.G.G.A.Z.V.n.b.m n b h j 2 2 8 6 0 q r w S K 1 # @ 8 K         ",
"        2 2 f j h b n x.b.n.m.:.*.*.3.3.3.3.3.<.Y.~.R.J.H.H.H.G.S.A.Z.V.n.b.x.m b b h j 2 , > 1 0 0 r w S K H < @ + 8 r         ",
"        , 2 2 f j h c n m x.b.{ $.$.$.*.*.*.*.[ G.G.G.G.S.A.A.Z.Z.V.n.n.b.m m b z j f 2 , > : 1 q q r S S K 1 # + X o           ",
"          , , 2 f j h z b n x.A #.#.$.$.$.$.$.{ A.Z.Z.Z.Z.Z.V.N.n.b.b.x.m b b h j f 2 , > > = < q r w S K w ; @ O X .           ",
"            , , 2 2 f j h z b C Q / #.#.#.#.) Z n.n.n.n.n.n.b.b.x.m m b b N j g f 2 > > : = = = 8 w S K K < @ + X .             ",
"            , , , , 2 f j j h M ! Q Q Q Q / / C x.x.x.x.x.x.m m n b b h j g f 2 , > > : = = = = 1 S S S 1 @ + X .               ",
"              , , , , , 2 f f g d Q Q Q Q ! C n n n n n n b b b z h j g f 2 , , > : = = = = = * < 1 < ; # + O . .               ",
"                > > , , , , 2 2 9 W W W W d M z z z z z h h h j g j f 2 , , > > = = = = = = * * * * # @ + O X .                 ",
"                  : > > > , , , 3 u W W s g j j g g g g j f f f 2 2 , > > > > = = = = = * * * * * # # + X X .                   ",
"                    : : > > > > , 5 u u 9 2 2 2 2 2 2 2 2 , , , > > > : : = = = = = = * * * * * # @ + O X .                     ",
"                      - : : > > : < u u 9 > > > , > > > > > > > : : = = = = = = = * * * * * * # @ + X X .                       ",
"                        - - - - - - 9 u 9 < > > > > > > : : = = = = = = = = = * * * * * * # # @ + X X .                         ",
"                          - - - - - 5 u u < = = - - = = = = = = = = = = * * * * * * * * # @ + O X . .                           ",
"                              - - = - 9 u 5 = ; < = = = = = = = = = * * * * * * * * # # @ + O X .                               ",
"                                = = = - 5 t 5 ; - = = = = = * * * * * * * * * * # # @ + + X X .                                 ",
"                                    * * * ; 5 ; * * * * * * * * * * * * * # # # @ + + X X X                                     ",
"                                          * * * * * * * * * * * * * # # # @ @ + + X X                                           ",
"                                                * * * * * # # # # # @ @ + + + X                                                 ",
"                                                        # # # # @ + + +                                                         "
};
