/* XPM */
static char *c794dae7203544c18e0b696a36d9e917nCeP4irmN1yLFkfy[] = {
/* columns rows colors chars-per-pixel */
"64 64 114 2 ",
"   c None",
".  c #000000",
"X  c #050A06",
"o  c #050A0A",
"O  c #090A09",
"+  c #061407",
"@  c #091409",
"#  c #10120F",
"$  c #011319",
"%  c #101413",
"&  c #131812",
"*  c #1D1C16",
"=  c #1E1E1E",
"-  c #112712",
";  c #1E2C1D",
":  c #202020",
">  c #252F26",
",  c gray21",
"<  c #053D4E",
"1  c #024866",
"2  c #024B68",
"3  c #005D6B",
"4  c #494E51",
"5  c #4D5354",
"6  c #4D6A70",
"7  c #777777",
"8  c #727E72",
"9  c #7F7F7F",
"0  c #4EAD4F",
"q  c #4EAD51",
"w  c #7E807F",
"e  c #6EBA6F",
"r  c #076B8D",
"t  c #086A8D",
"y  c #066E91",
"u  c #7F7F81",
"i  c #807E81",
"p  c #2FB183",
"a  c #30B282",
"s  c #0EB7BA",
"d  c #0FB8BB",
"f  c #4DB884",
"g  c #0391CF",
"h  c #0391D1",
"j  c #00BCD5",
"k  c #4DC4C2",
"l  c #4CCBDC",
"z  c #808080",
"x  c #8D8D8D",
"c  c #8F9497",
"v  c #959493",
"b  c #9C9C9C",
"n  c #A1A19F",
"m  c #A1A1A1",
"M  c #A7ACA8",
"N  c #A4B2A5",
"B  c #ADB9AD",
"V  c #B6BBBE",
"C  c #BBBCBD",
"Z  c #84C686",
"A  c #8AC98D",
"S  c #A6D5A7",
"D  c #A7D6A8",
"F  c #BEC0BF",
"G  c #E2C59D",
"H  c #EFD2A9",
"J  c #FFDBAB",
"K  c #FFDEB2",
"L  c #FADEB9",
"P  c #FFE0B4",
"I  c #F7E0BE",
"U  c #FFE4BD",
"Y  c #BCBDC0",
"T  c #C2C4C4",
"R  c #C6C7C9",
"E  c #C7CBCC",
"W  c #CBCCCD",
"Q  c #D2D2D2",
"!  c #DADADA",
"~  c #D7EDD8",
"^  c #FFE5C0",
"/  c #F3E1C9",
"(  c #FEE7C8",
")  c #FFE8C9",
"_  c #E0ECDE",
"`  c #FEEDD5",
"'  c #E5E5E5",
"]  c #E8E8E7",
"[  c #EDEDEC",
"{  c #E9F5E7",
"}  c #EAF6EB",
"|  c #F0F0EE",
" . c #F3F3F5",
".. c #F4F4F4",
"X. c gray96",
"o. c #F6F6F6",
"O. c gray97",
"+. c #F3F3F3",
"@. c #F2F9F1",
"#. c #F6F8F7",
"$. c #F7F9F8",
"%. c #F8F8F8",
"&. c #F9FBFA",
"*. c #FBFBFB",
"=. c #FDFBFC",
"-. c gray99",
";. c #FDFDFD",
":. c #FEFEFC",
">. c #FFFFFD",
",. c #FEFEFE",
"<. c #FEFEFF",
"1. c #FFFEFF",
"2. c #FEFFFF",
"3. c white",
/* pixels */
"                                                                                                                                ",
"                                                                                                                                ",
"                                                                                                                                ",
"                                                                                                                                ",
"                                                                                                                                ",
"                                                                                                                                ",
"                                                                                                                                ",
"                                                                                                                                ",
"                                                                                                                                ",
"                                                                                                                                ",
"                                x = = = = =                                             B = = = = = Q                           ",
"                                7 . . . . .                                             V . . . . .                             ",
"                                9 . . . . .                                             N . . . . . Q                           ",
"                          W . . z 3.3.3.3.3.O . . . . . . . . . . . . . . . . . . . . . 5 3.=.3.3.3.: . .                       ",
"                          W . . 9 3.3.3.3.3.o . . . . . . . . . . . . . . . . . . . . . 4 3.3.3.3.3.= . .                       ",
"                          W . . 9 3.3.3.3.3.% O O O O O O O O O O o O O O O O O O O o O 5 3.3.3.3.3.= . .                       ",
"                          R . . 9 3.3.3.3.3.3.3.3.3.3.3.3.3.3.3.3.3.3.3.3.3.3.3.3.3.X.X. .3.3.3.3.3.= . .                       ",
"                          C . . 9 3.3.3.3.3.3.3.3.3.3.3.3.3.3.3.3.3.3.3.3.3.3.3.3.3.[ ' 3.3.3.3.3.3.= . .                       ",
"                          E . . 9 3.3.3.3.3.3.3.3.3.3.3.3.3.3.3.3.3.3.%.3.3.3.3.3.3.$.3.| 3.3.3.3.3.= . .                       ",
"                          T . . w 3.3.3.3.3.3.3.3.3.3.3.3.3.3.3.3.X.X.+.3.3.3.3.3.3.3.3.%.+.X.%.3.3.= . .                       ",
"                          C . . 9 3.3.3.3.3.3.3.3.3.3.3.3.3.3.3.3.%.' 3.3.3.3.3.3.3.3.3.3.[ ' 3.3.3.= . .                       ",
"                          W . . u 3.3.3.%.+.` ` ` ` ` ` ` ` ` ` ` ` ` / ` ` ` ` ` ` 3.3.%.3.3.%.3.3.= . .                       ",
"                          T . . i 3.3.X.+.X.J J J J J J J J J J J J J J J J J J J K 3.3.3.3.3.3.3.3.= . .                       ",
"                          C . . w 3.3.[ X.3.J J J J J J J J J J J J J J J J J J J K 3.3.3.3.3.3.3.3.= . .                       ",
"                          E . . 9 3.3.) L L J J J J J J J J J J J J J J J J J J J J U U ` 3.3.3.3.3.= . .                       ",
"                          T . . 9 3.3.U J J J J J J J J J J J J J J J J J J J J J J J J ^ 3.3.3.3.3.= . .                       ",
"                          C . . 9 3.3.U J J J J J J J J J J J J J J J J J J J J J J J J ^ 3.3.3.3.3.= . .                       ",
"                          W . . 9 3.3.U J J @ X O J J J J J J J J J J J J J J X X & J J ^ 3.3.3.3.3.= . .                       ",
"                          F . . 9 3.3.U J J X . . J J J J J J J J J J J J J J . . O J J U 3.3.3.3.3.= . .                       ",
"                          C . . 9 3.3.U J J O . X J J J J J J J J J J J J J J . . # J J ^ 3.3.3.3.3.= . .                       ",
"                          E . . u +.' U J J J J J J J G . . . . . . . . H J J J J J J J U 3.3.3.3.3.= . .                       ",
"                          Y . . 7 +.%.L J J J J J J J G . . . . . . . . H J J J J J J J ^ 3.3.3.3.3.= . .                       ",
"                      Q   M @ @ 8 _ } I P P J J J J J G * * * * * * * * H J J J J J K K ) 3.3.@.} } > + @ [ W !                 ",
"                      . . - q q q q 0 ~ 3.3.J J J J J J J J J J J J J J J J J J J J 3.3.3.3.3.A q q q q q . . O                 ",
"                      . . - q q q q q ~ 3.3.J J J J J J J J J J J J J J J J J J J K 3.3.3.3.3.A q q q 0 0 . . O                 ",
"                      . . ; A A e q q ~ 3.3.) ) ) ) ) ) ) ) ) ) ) ( ) ) ) ) ) ) ) ) 3.3.3.3.3.A q q Z A A . . O                 ",
"                    #.. . , 3.3.D q q ~ 3.3.3.3.3.3.3.3.3.3.3.3.3.3.3.3.3.3.3.3.3.3.3.3.3.3.3.A q 0 } 3.3.. . O                 ",
"                      . . , 3.3.S q q ~ 3.3.3.3.3.3.3.3.3.3.3.3.3.3.3.3.3.3.3.3.3.3.3.3.3.3.3.A q q } 3.3.. . O                 ",
"                      . . , 3.3.S q 0 k l l l l l l l l l l l l l l l l l l l l l l l l l l l f q q } 3.3.. . o                 ",
"                      . . , 3.3.D q q d j j j j j j j j j j j j j j j j j j j j j j j j j j j p q q { 3.3.. . o                 ",
"                      . . , 3.3.D q 0 s j j j j j j j j j j j j j j j j j j j j j j j j j j j p q q } 3.3.. . O                 ",
"                      . . , 3.3.D q q d j j j j j j j j j j j j j j j j j j j j j j j j j j j p q q } 3.3.. . O                 ",
"                      . . , 3.3.D q q d j j j j j j j j j j j j j j j j j j j j j j j j j j j p q q } 3.3.. . O                 ",
"                      . . , 3.3.S q q d j j j j j j j j j j j j j j j j j j j j j j j j j j j a q q } 3.3.. . O                 ",
"                          T . . 3 j j j j j j j j j j j j j j j j j j j j j j j j j j j j j j j j j $ . .                       ",
"                          W . . 3 j j j j j j j j j j j j j j j j j j j j j j j j j j j j j j j j j $ . .                       ",
"                          C . . 3 j j j j j j j j j j j j j j j j j j j j j j j j j j j j j j j j j $ . .                       ",
"                          T . . 1 g g g g g g g g g g g g g g g g g g g g g g g g g g g g g g g g g $ . .                       ",
"                          E . . 2 g g g h g g g g g g g g g g g g g g g g g g g g g g g g g g g g g $ . .                       ",
"                          Y . . 2 g g g g g g g h r r r r r r t r r r r r r r r r y g g g g g g g g $ . .                       ",
"                          R . . 2 g g g g g g g g . . . . . . . . . . . . . . . . o g g g g g g g h $ . .                       ",
"                          W . . 2 g h g g g g g g . . . . . . . . . . . . . . . . o g h g g g g g h $ . .                       ",
"                          ! b m 6 < < < < < < < < v b n v m b v m b v m b v m b v b < < < < < < < < c v v                       ",
"                                u . . . . . . . .                                 [ . . . . . . . . Q                           ",
"                                w . . . . . . . .                                 ] . . . . . . . . Q                           ",
"                                ' !   W '   W [                                     ! W   Q W   Q Q                             ",
"                                                                                                                                ",
"                                                                                                                                ",
"                                                                                                                                ",
"                                                                                                                                ",
"                                                                                                                                ",
"                                                                                                                                ",
"                                                                                                                                ",
"                                                                                                                                "
};
